<?xml version="1.0" encoding="UTF-8" standalone="no"?>
<!-- Uploaded to: SVG Repo, www.svgrepo.com, Generator: SVG Repo Mixer Tools -->

<svg
   width="800px"
   height="800px"
   viewBox="0 0 1000 1000"
   data-name="Layer 2"
   id="Layer_2"
   version="1.1"
   sodipodi:docname="bydlio.svg"
   xml:space="preserve"
   inkscape:version="1.4.2 (f4327f4, 2025-05-13)"
   xmlns:inkscape="http://www.inkscape.org/namespaces/inkscape"
   xmlns:sodipodi="http://sodipodi.sourceforge.net/DTD/sodipodi-0.dtd"
   xmlns:xlink="http://www.w3.org/1999/xlink"
   xmlns="http://www.w3.org/2000/svg"
   xmlns:svg="http://www.w3.org/2000/svg"><sodipodi:namedview
     id="namedview3"
     pagecolor="#ffffff"
     bordercolor="#000000"
     borderopacity="0.25"
     inkscape:showpageshadow="2"
     inkscape:pageopacity="0.0"
     inkscape:pagecheckerboard="0"
     inkscape:deskcolor="#d1d1d1"
     inkscape:zoom="0.71859727"
     inkscape:cx="262.31661"
     inkscape:cy="320.76381"
     inkscape:window-width="1920"
     inkscape:window-height="1094"
     inkscape:window-x="-11"
     inkscape:window-y="-11"
     inkscape:window-maximized="1"
     inkscape:current-layer="Layer_2" /><defs
     id="defs1"><linearGradient
       id="linearGradient6"
       inkscape:collect="always"><stop
         style="stop-color:#81c5d0;stop-opacity:1;"
         offset="0"
         id="stop6" /><stop
         style="stop-color:#81c5d0;stop-opacity:0;"
         offset="0.82474226"
         id="stop7" /></linearGradient><style
       id="style1">.cls-1{fill:none;stroke:#020202;stroke-linecap:round;stroke-miterlimit:10;stroke-width:22px;}</style><linearGradient
       inkscape:collect="always"
       xlink:href="#linearGradient6"
       id="linearGradient7"
       x1="316.38559"
       y1="315.63419"
       x2="683.61438"
       y2="682.86304"
       gradientUnits="userSpaceOnUse" /></defs><path
     class="cls-1"
     d="M168.45,471,494.57,182.05a8.41,8.41,0,0,1,10.86,0l164,145.25"
     id="path1" /><line
     class="cls-1"
     x1="831.55"
     x2="712.86"
     y1="471"
     y2="365.83"
     id="line1" /><path
     class="cls-1"
     d="M748.67,471V798.19c0,12-10.85,21.75-24.22,21.75H275.55c-13.37,0-24.22-9.74-24.22-21.75V471"
     id="path2" /><path
     class="cls-1"
     d="m 748.67,471 v 327.19 c 0,12 -10.85,21.75 -24.22,21.75 h -448.9 c -13.37,0 -24.22,-9.74 -24.22,-21.75 V 471 L 251.76891,397.17748 494.57,182.05 669.38,327.3 v -74.2 l 16,-16 h 11.55 l 16,16 v 112.73 l 35.14676,31.20521 z"
     id="path2-4"
     style="fill:url(#linearGradient7);stroke:#020202;stroke-width:22px;stroke-linecap:round;stroke-miterlimit:10;fill-opacity:1" /><polyline
     class="cls-1"
     points="403.52 713.41 403.52 550.89 596.48 550.89 596.48 819.94"
     id="polyline2" /><path
     class="cls-1"
     d="M669.38,327.3V253.1a16,16,0,0,1,16-16h11.55a16,16,0,0,1,16,16V365.83"
     id="path3" /><path
     style="fill:#000000;stroke:#000000;stroke-width:0.625"
     d="m 251.33,471 0.43891,-73.82252"
     id="path4" /><path
     style="fill:#000000;stroke:#000000;stroke-width:0.625"
     d="m 748.67,471 -0.59324,-73.96479"
     id="path5" /></svg>
